<?xml version="1.0" encoding="UTF-8" standalone="no"?>
<!DOCTYPE svg PUBLIC "-//W3C//DTD SVG 1.1//EN"
 "http://www.w3.org/Graphics/SVG/1.1/DTD/svg11.dtd">
<!-- Generated by graphviz version 5.0.0 (20220707.1540)
 -->
<!-- Title: snakemake_dag Pages: 1 -->
<svg width="1734pt" height="620pt"
 viewBox="0.00 0.00 1734.15 620.00" xmlns="http://www.w3.org/2000/svg" xmlns:xlink="http://www.w3.org/1999/xlink">
<g id="graph0" class="graph" transform="scale(1 1) rotate(0) translate(4 616)">
<title>snakemake_dag</title>
<polygon fill="white" stroke="transparent" points="-4,4 -4,-616 1730.15,-616 1730.15,4 -4,4"/>
<!-- 0 -->
<g id="node1" class="node">
<title>0</title>
<path fill="none" stroke="#566bd8" stroke-width="2" d="M844,-36C844,-36 814,-36 814,-36 808,-36 802,-30 802,-24 802,-24 802,-12 802,-12 802,-6 808,0 814,0 814,0 844,0 844,0 850,0 856,-6 856,-12 856,-12 856,-24 856,-24 856,-30 850,-36 844,-36"/>
<text text-anchor="middle" x="829" y="-15.5" font-family="sans" font-size="10.00">all</text>
</g>
<!-- 1 -->
<g id="node2" class="node">
<title>1</title>
<path fill="none" stroke="#d8c356" stroke-width="2" d="M44,-108C44,-108 12,-108 12,-108 6,-108 0,-102 0,-96 0,-96 0,-84 0,-84 0,-78 6,-72 12,-72 12,-72 44,-72 44,-72 50,-72 56,-78 56,-84 56,-84 56,-96 56,-96 56,-102 50,-108 44,-108"/>
<text text-anchor="middle" x="28" y="-87.5" font-family="sans" font-size="10.00">organism</text>
</g>
<!-- 1&#45;&gt;0 -->
<g id="edge1" class="edge">
<title>1&#45;&gt;0</title>
<path fill="none" stroke="grey" stroke-width="2" d="M56.07,-76.23C60.65,-74.56 65.4,-73.06 70,-72 209.87,-39.67 659.41,-24.03 791.91,-20.05"/>
<polygon fill="grey" stroke="grey" stroke-width="2" points="792.07,-23.54 801.97,-19.75 791.87,-16.55 792.07,-23.54"/>
</g>
<!-- 2 -->
<g id="node3" class="node">
<title>2</title>
<path fill="none" stroke="#bed856" stroke-width="2" d="M311.5,-612C311.5,-612 238.5,-612 238.5,-612 232.5,-612 226.5,-606 226.5,-600 226.5,-600 226.5,-588 226.5,-588 226.5,-582 232.5,-576 238.5,-576 238.5,-576 311.5,-576 311.5,-576 317.5,-576 323.5,-582 323.5,-588 323.5,-588 323.5,-600 323.5,-600 323.5,-606 317.5,-612 311.5,-612"/>
<text text-anchor="middle" x="275" y="-591.5" font-family="sans" font-size="10.00">processAmplicons</text>
</g>
<!-- 2&#45;&gt;0 -->
<g id="edge2" class="edge">
<title>2&#45;&gt;0</title>
<path fill="none" stroke="grey" stroke-width="2" d="M226.31,-579.96C169.72,-561.51 84,-521.86 84,-451 84,-451 84,-451 84,-161 84,-111.49 107.59,-95.81 151,-72 207.31,-41.11 657.78,-24.44 791.63,-20.13"/>
<polygon fill="grey" stroke="grey" stroke-width="2" points="791.91,-23.63 801.79,-19.81 791.68,-16.63 791.91,-23.63"/>
</g>
<!-- 3 -->
<g id="node4" class="node">
<title>3</title>
<path fill="none" stroke="#56d8a2" stroke-width="2" d="M494,-540C494,-540 444,-540 444,-540 438,-540 432,-534 432,-528 432,-528 432,-516 432,-516 432,-510 438,-504 444,-504 444,-504 494,-504 494,-504 500,-504 506,-510 506,-516 506,-516 506,-528 506,-528 506,-534 500,-540 494,-540"/>
<text text-anchor="middle" x="469" y="-519.5" font-family="sans" font-size="10.00">filter_hairpins</text>
</g>
<!-- 2&#45;&gt;3 -->
<g id="edge30" class="edge">
<title>2&#45;&gt;3</title>
<path fill="none" stroke="grey" stroke-width="2" d="M322.46,-575.88C352.82,-564.92 392.04,-550.77 422.27,-539.86"/>
<polygon fill="grey" stroke="grey" stroke-width="2" points="423.52,-543.13 431.74,-536.44 421.15,-536.55 423.52,-543.13"/>
</g>
<!-- 3&#45;&gt;0 -->
<g id="edge3" class="edge">
<title>3&#45;&gt;0</title>
<path fill="none" stroke="grey" stroke-width="2" d="M506.28,-520.8C714.67,-519.23 1726,-505.07 1726,-379 1726,-379 1726,-379 1726,-161 1726,-119.11 1728.39,-97.29 1695,-72 1628.25,-21.43 1023.94,-18.72 866.41,-18.89"/>
<polygon fill="grey" stroke="grey" stroke-width="2" points="866.27,-15.39 856.27,-18.9 866.28,-22.39 866.27,-15.39"/>
</g>
<!-- 5 -->
<g id="node6" class="node">
<title>5</title>
<path fill="none" stroke="#d86e56" stroke-width="2" d="M494,-396C494,-396 444,-396 444,-396 438,-396 432,-390 432,-384 432,-384 432,-372 432,-372 432,-366 438,-360 444,-360 444,-360 494,-360 494,-360 500,-360 506,-366 506,-372 506,-372 506,-384 506,-384 506,-390 500,-396 494,-396"/>
<text text-anchor="middle" x="469" y="-375.5" font-family="sans" font-size="10.00">estimateDisp</text>
</g>
<!-- 3&#45;&gt;5 -->
<g id="edge32" class="edge">
<title>3&#45;&gt;5</title>
<path fill="none" stroke="grey" stroke-width="2" d="M469,-503.87C469,-479.67 469,-435.21 469,-406.39"/>
<polygon fill="grey" stroke="grey" stroke-width="2" points="472.5,-406.19 469,-396.19 465.5,-406.19 472.5,-406.19"/>
</g>
<!-- 6 -->
<g id="node7" class="node">
<title>6</title>
<path fill="none" stroke="#56c9d8" stroke-width="2" d="M610.5,-468C610.5,-468 559.5,-468 559.5,-468 553.5,-468 547.5,-462 547.5,-456 547.5,-456 547.5,-444 547.5,-444 547.5,-438 553.5,-432 559.5,-432 559.5,-432 610.5,-432 610.5,-432 616.5,-432 622.5,-438 622.5,-444 622.5,-444 622.5,-456 622.5,-456 622.5,-462 616.5,-468 610.5,-468"/>
<text text-anchor="middle" x="585" y="-447.5" font-family="sans" font-size="10.00">model_matrix</text>
</g>
<!-- 3&#45;&gt;6 -->
<g id="edge34" class="edge">
<title>3&#45;&gt;6</title>
<path fill="none" stroke="grey" stroke-width="2" d="M497.38,-503.88C512.54,-494.72 531.41,-483.34 547.74,-473.48"/>
<polygon fill="grey" stroke="grey" stroke-width="2" points="549.76,-476.35 556.51,-468.19 546.14,-470.36 549.76,-476.35"/>
</g>
<!-- 7 -->
<g id="node8" class="node">
<title>7</title>
<path fill="none" stroke="#56b1d8" stroke-width="2" d="M198,-180C198,-180 162,-180 162,-180 156,-180 150,-174 150,-168 150,-168 150,-156 150,-156 150,-150 156,-144 162,-144 162,-144 198,-144 198,-144 204,-144 210,-150 210,-156 210,-156 210,-168 210,-168 210,-174 204,-180 198,-180"/>
<text text-anchor="middle" x="180" y="-159.5" font-family="sans" font-size="10.00">MDS_plot</text>
</g>
<!-- 3&#45;&gt;7 -->
<g id="edge35" class="edge">
<title>3&#45;&gt;7</title>
<path fill="none" stroke="grey" stroke-width="2" d="M431.78,-520.07C379.61,-517.32 283.16,-506.88 212,-468 163.46,-441.48 125,-434.32 125,-379 125,-379 125,-379 125,-305 125,-262.01 147.19,-216.34 163.38,-188.74"/>
<polygon fill="grey" stroke="grey" stroke-width="2" points="166.43,-190.47 168.6,-180.1 160.44,-186.85 166.43,-190.47"/>
</g>
<!-- 9 -->
<g id="node10" class="node">
<title>9</title>
<path fill="none" stroke="#56d8d0" stroke-width="2" d="M313.5,-180C313.5,-180 278.5,-180 278.5,-180 272.5,-180 266.5,-174 266.5,-168 266.5,-168 266.5,-156 266.5,-156 266.5,-150 272.5,-144 278.5,-144 278.5,-144 313.5,-144 313.5,-144 319.5,-144 325.5,-150 325.5,-156 325.5,-156 325.5,-168 325.5,-168 325.5,-174 319.5,-180 313.5,-180"/>
<text text-anchor="middle" x="296" y="-159.5" font-family="sans" font-size="10.00">PCA_plot</text>
</g>
<!-- 3&#45;&gt;9 -->
<g id="edge38" class="edge">
<title>3&#45;&gt;9</title>
<path fill="none" stroke="grey" stroke-width="2" d="M431.73,-520.2C385.95,-517.46 307.88,-506.89 255,-468 217.73,-440.59 201,-425.27 201,-379 201,-379 201,-379 201,-305 201,-262.33 212.5,-250.93 237,-216 244.61,-205.15 254.84,-194.96 264.64,-186.48"/>
<polygon fill="grey" stroke="grey" stroke-width="2" points="266.91,-189.15 272.36,-180.06 262.43,-183.77 266.91,-189.15"/>
</g>
<!-- 10 -->
<g id="node11" class="node">
<title>10</title>
<path fill="none" stroke="#d85656" stroke-width="2" d="M444,-180C444,-180 356,-180 356,-180 350,-180 344,-174 344,-168 344,-168 344,-156 344,-156 344,-150 350,-144 356,-144 356,-144 444,-144 444,-144 450,-144 456,-150 456,-156 456,-156 456,-168 456,-168 456,-174 450,-180 444,-180"/>
<text text-anchor="middle" x="400" y="-159.5" font-family="sans" font-size="10.00">sample_dist_heatmap</text>
</g>
<!-- 3&#45;&gt;10 -->
<g id="edge40" class="edge">
<title>3&#45;&gt;10</title>
<path fill="none" stroke="grey" stroke-width="2" d="M431.79,-515.47C366.7,-503.47 239,-468.51 239,-379 239,-379 239,-379 239,-305 239,-264.25 234,-246.51 261,-216 271.42,-204.22 303.4,-191.65 334.06,-181.71"/>
<polygon fill="grey" stroke="grey" stroke-width="2" points="335.46,-184.94 343.94,-178.58 333.35,-178.26 335.46,-184.94"/>
</g>
<!-- 14 -->
<g id="node15" class="node">
<title>14</title>
<path fill="none" stroke="#78d856" stroke-width="2" d="M721.5,-180C721.5,-180 638.5,-180 638.5,-180 632.5,-180 626.5,-174 626.5,-168 626.5,-168 626.5,-156 626.5,-156 626.5,-150 632.5,-144 638.5,-144 638.5,-144 721.5,-144 721.5,-144 727.5,-144 733.5,-150 733.5,-156 733.5,-156 733.5,-168 733.5,-168 733.5,-174 727.5,-180 721.5,-180"/>
<text text-anchor="middle" x="680" y="-159.5" font-family="sans" font-size="10.00">expression_heatmap</text>
</g>
<!-- 3&#45;&gt;14 -->
<g id="edge48" class="edge">
<title>3&#45;&gt;14</title>
<path fill="none" stroke="grey" stroke-width="2" d="M506.07,-515.16C570.18,-502.71 695,-467.16 695,-379 695,-379 695,-379 695,-305 695,-264.99 689.04,-219 684.63,-190.46"/>
<polygon fill="grey" stroke="grey" stroke-width="2" points="688.06,-189.75 683.04,-180.43 681.15,-190.85 688.06,-189.75"/>
</g>
<!-- 23 -->
<g id="node24" class="node">
<title>23</title>
<path fill="none" stroke="#78d856" stroke-width="2" d="M1544.5,-180C1544.5,-180 1461.5,-180 1461.5,-180 1455.5,-180 1449.5,-174 1449.5,-168 1449.5,-168 1449.5,-156 1449.5,-156 1449.5,-150 1455.5,-144 1461.5,-144 1461.5,-144 1544.5,-144 1544.5,-144 1550.5,-144 1556.5,-150 1556.5,-156 1556.5,-156 1556.5,-168 1556.5,-168 1556.5,-174 1550.5,-180 1544.5,-180"/>
<text text-anchor="middle" x="1503" y="-159.5" font-family="sans" font-size="10.00">expression_heatmap</text>
</g>
<!-- 3&#45;&gt;23 -->
<g id="edge63" class="edge">
<title>3&#45;&gt;23</title>
<path fill="none" stroke="grey" stroke-width="2" d="M506.04,-519.72C686.84,-512.98 1468,-478.14 1468,-379 1468,-379 1468,-379 1468,-305 1468,-263.84 1482.03,-217.88 1492.33,-189.69"/>
<polygon fill="grey" stroke="grey" stroke-width="2" points="1495.67,-190.74 1495.92,-180.15 1489.12,-188.28 1495.67,-190.74"/>
</g>
<!-- 4 -->
<g id="node5" class="node">
<title>4</title>
<path fill="none" stroke="#56d87b" stroke-width="2" d="M434,-252C434,-252 366,-252 366,-252 360,-252 354,-246 354,-240 354,-240 354,-228 354,-228 354,-222 360,-216 366,-216 366,-216 434,-216 434,-216 440,-216 446,-222 446,-228 446,-228 446,-240 446,-240 446,-246 440,-252 434,-252"/>
<text text-anchor="middle" x="400" y="-231.5" font-family="sans" font-size="10.00">corrected_counts</text>
</g>
<!-- 4&#45;&gt;0 -->
<g id="edge4" class="edge">
<title>4&#45;&gt;0</title>
<path fill="none" stroke="grey" stroke-width="2" d="M426.79,-215.95C439.74,-206.62 454.67,-194.09 465,-180 495.56,-138.34 467.75,-104.4 508,-72 551.14,-37.27 716.55,-24.65 791.59,-20.64"/>
<polygon fill="grey" stroke="grey" stroke-width="2" points="792.17,-24.12 801.98,-20.11 791.82,-17.13 792.17,-24.12"/>
</g>
<!-- 4&#45;&gt;7 -->
<g id="edge36" class="edge">
<title>4&#45;&gt;7</title>
<path fill="none" stroke="grey" stroke-width="2" d="M353.88,-218.33C314.21,-205.7 257.57,-187.68 219.84,-175.68"/>
<polygon fill="grey" stroke="grey" stroke-width="2" points="220.79,-172.31 210.2,-172.61 218.67,-178.98 220.79,-172.31"/>
</g>
<!-- 4&#45;&gt;9 -->
<g id="edge39" class="edge">
<title>4&#45;&gt;9</title>
<path fill="none" stroke="grey" stroke-width="2" d="M374.56,-215.88C361.21,-206.89 344.68,-195.76 330.22,-186.03"/>
<polygon fill="grey" stroke="grey" stroke-width="2" points="331.79,-182.87 321.54,-180.19 327.88,-188.68 331.79,-182.87"/>
</g>
<!-- 4&#45;&gt;10 -->
<g id="edge41" class="edge">
<title>4&#45;&gt;10</title>
<path fill="none" stroke="grey" stroke-width="2" d="M400,-215.7C400,-207.98 400,-198.71 400,-190.11"/>
<polygon fill="grey" stroke="grey" stroke-width="2" points="403.5,-190.1 400,-180.1 396.5,-190.1 403.5,-190.1"/>
</g>
<!-- 4&#45;&gt;14 -->
<g id="edge49" class="edge">
<title>4&#45;&gt;14</title>
<path fill="none" stroke="grey" stroke-width="2" d="M446.24,-221.44C492.64,-209.84 564.48,-191.88 616.27,-178.93"/>
<polygon fill="grey" stroke="grey" stroke-width="2" points="617.17,-182.32 626.02,-176.49 615.47,-175.52 617.17,-182.32"/>
</g>
<!-- 4&#45;&gt;23 -->
<g id="edge64" class="edge">
<title>4&#45;&gt;23</title>
<path fill="none" stroke="grey" stroke-width="2" d="M446.07,-230.65C625.5,-221.47 1272.12,-188.14 1364,-180 1388.58,-177.82 1415.51,-174.7 1439.07,-171.73"/>
<polygon fill="grey" stroke="grey" stroke-width="2" points="1439.82,-175.16 1449.29,-170.42 1438.93,-168.22 1439.82,-175.16"/>
</g>
<!-- 5&#45;&gt;0 -->
<g id="edge7" class="edge">
<title>5&#45;&gt;0</title>
<path fill="none" stroke="grey" stroke-width="2" d="M431.98,-369.63C337.26,-348.68 96.62,-281.24 141,-144 153.14,-106.44 158.63,-91.42 193,-72 245.19,-42.51 663.66,-25 791.83,-20.29"/>
<polygon fill="grey" stroke="grey" stroke-width="2" points="792.07,-23.79 801.93,-19.93 791.81,-16.79 792.07,-23.79"/>
</g>
<!-- 5&#45;&gt;4 -->
<g id="edge31" class="edge">
<title>5&#45;&gt;4</title>
<path fill="none" stroke="grey" stroke-width="2" d="M431.87,-367.08C410.31,-359.2 384.92,-345.79 372,-324 360.28,-304.25 370.14,-279.07 381.26,-260.54"/>
<polygon fill="grey" stroke="grey" stroke-width="2" points="384.27,-262.33 386.73,-252.03 378.38,-258.55 384.27,-262.33"/>
</g>
<!-- 8 -->
<g id="node9" class="node">
<title>8</title>
<path fill="none" stroke="#d6d856" stroke-width="2" d="M317.5,-252C317.5,-252 282.5,-252 282.5,-252 276.5,-252 270.5,-246 270.5,-240 270.5,-240 270.5,-228 270.5,-228 270.5,-222 276.5,-216 282.5,-216 282.5,-216 317.5,-216 317.5,-216 323.5,-216 329.5,-222 329.5,-228 329.5,-228 329.5,-240 329.5,-240 329.5,-246 323.5,-252 317.5,-252"/>
<text text-anchor="middle" x="300" y="-231.5" font-family="sans" font-size="10.00">BVC_plot</text>
</g>
<!-- 5&#45;&gt;8 -->
<g id="edge37" class="edge">
<title>5&#45;&gt;8</title>
<path fill="none" stroke="grey" stroke-width="2" d="M431.99,-363.78C410.32,-354.81 383.3,-341.42 363,-324 342.38,-306.31 325.08,-280.48 313.86,-261.2"/>
<polygon fill="grey" stroke="grey" stroke-width="2" points="316.81,-259.31 308.85,-252.33 310.72,-262.76 316.81,-259.31"/>
</g>
<!-- 11 -->
<g id="node12" class="node">
<title>11</title>
<path fill="none" stroke="#56d8b9" stroke-width="2" d="M655,-324C655,-324 625,-324 625,-324 619,-324 613,-318 613,-312 613,-312 613,-300 613,-300 613,-294 619,-288 625,-288 625,-288 655,-288 655,-288 661,-288 667,-294 667,-300 667,-300 667,-312 667,-312 667,-318 661,-324 655,-324"/>
<text text-anchor="middle" x="640" y="-303.5" font-family="sans" font-size="10.00">glmFit</text>
</g>
<!-- 5&#45;&gt;11 -->
<g id="edge43" class="edge">
<title>5&#45;&gt;11</title>
<path fill="none" stroke="grey" stroke-width="2" d="M506.1,-361.81C534.96,-350 574.79,-333.69 603.49,-321.94"/>
<polygon fill="grey" stroke="grey" stroke-width="2" points="604.84,-325.17 612.77,-318.15 602.19,-318.7 604.84,-325.17"/>
</g>
<!-- 20 -->
<g id="node21" class="node">
<title>20</title>
<path fill="none" stroke="#a7d856" stroke-width="2" d="M975,-324C975,-324 829,-324 829,-324 823,-324 817,-318 817,-312 817,-312 817,-300 817,-300 817,-294 823,-288 829,-288 829,-288 975,-288 975,-288 981,-288 987,-294 987,-300 987,-300 987,-312 987,-312 987,-318 981,-324 975,-324"/>
<text text-anchor="middle" x="902" y="-309" font-family="sans" font-size="10.00">camera</text>
<text text-anchor="middle" x="902" y="-298" font-family="sans" font-size="10.00">contrast: DMSO.D2_vs_DMSO.D8</text>
</g>
<!-- 5&#45;&gt;20 -->
<g id="edge58" class="edge">
<title>5&#45;&gt;20</title>
<path fill="none" stroke="grey" stroke-width="2" d="M506.29,-370.97C572.4,-360.28 712.05,-337.71 806.48,-322.44"/>
<polygon fill="grey" stroke="grey" stroke-width="2" points="807.3,-325.85 816.62,-320.8 806.19,-318.94 807.3,-325.85"/>
</g>
<!-- 29 -->
<g id="node30" class="node">
<title>29</title>
<path fill="none" stroke="#a7d856" stroke-width="2" d="M545,-324C545,-324 393,-324 393,-324 387,-324 381,-318 381,-312 381,-312 381,-300 381,-300 381,-294 387,-288 393,-288 393,-288 545,-288 545,-288 551,-288 557,-294 557,-300 557,-300 557,-312 557,-312 557,-318 551,-324 545,-324"/>
<text text-anchor="middle" x="469" y="-309" font-family="sans" font-size="10.00">camera</text>
<text text-anchor="middle" x="469" y="-298" font-family="sans" font-size="10.00">contrast: DMSO.D2_vs_DMSO.D14</text>
</g>
<!-- 5&#45;&gt;29 -->
<g id="edge73" class="edge">
<title>5&#45;&gt;29</title>
<path fill="none" stroke="grey" stroke-width="2" d="M469,-359.7C469,-351.98 469,-342.71 469,-334.11"/>
<polygon fill="grey" stroke="grey" stroke-width="2" points="472.5,-334.1 469,-324.1 465.5,-334.1 472.5,-334.1"/>
</g>
<!-- 6&#45;&gt;0 -->
<g id="edge6" class="edge">
<title>6&#45;&gt;0</title>
<path fill="none" stroke="grey" stroke-width="2" d="M584.3,-431.7C582,-364.49 577.49,-122 630,-72 674.1,-30 747.62,-20.43 791.89,-18.72"/>
<polygon fill="grey" stroke="grey" stroke-width="2" points="792.03,-22.22 801.94,-18.45 791.85,-15.22 792.03,-22.22"/>
</g>
<!-- 6&#45;&gt;5 -->
<g id="edge33" class="edge">
<title>6&#45;&gt;5</title>
<path fill="none" stroke="grey" stroke-width="2" d="M556.62,-431.88C541.46,-422.72 522.59,-411.34 506.26,-401.48"/>
<polygon fill="grey" stroke="grey" stroke-width="2" points="507.86,-398.36 497.49,-396.19 504.24,-404.35 507.86,-398.36"/>
</g>
<!-- 6&#45;&gt;11 -->
<g id="edge42" class="edge">
<title>6&#45;&gt;11</title>
<path fill="none" stroke="grey" stroke-width="2" d="M591.63,-431.87C601.09,-407.46 618.53,-362.43 629.68,-333.64"/>
<polygon fill="grey" stroke="grey" stroke-width="2" points="632.99,-334.78 633.34,-324.19 626.47,-332.25 632.99,-334.78"/>
</g>
<!-- 13 -->
<g id="node14" class="node">
<title>13</title>
<path fill="none" stroke="#569ad8" stroke-width="2" d="M800.5,-396C800.5,-396 735.5,-396 735.5,-396 729.5,-396 723.5,-390 723.5,-384 723.5,-384 723.5,-372 723.5,-372 723.5,-366 729.5,-360 735.5,-360 735.5,-360 800.5,-360 800.5,-360 806.5,-360 812.5,-366 812.5,-372 812.5,-372 812.5,-384 812.5,-384 812.5,-390 806.5,-396 800.5,-396"/>
<text text-anchor="middle" x="768" y="-375.5" font-family="sans" font-size="10.00">contrasts_matrix</text>
</g>
<!-- 6&#45;&gt;13 -->
<g id="edge46" class="edge">
<title>6&#45;&gt;13</title>
<path fill="none" stroke="grey" stroke-width="2" d="M622.92,-434.5C649.16,-424.46 684.48,-410.95 713.7,-399.77"/>
<polygon fill="grey" stroke="grey" stroke-width="2" points="715.27,-402.92 723.36,-396.08 712.77,-396.38 715.27,-402.92"/>
</g>
<!-- 6&#45;&gt;20 -->
<g id="edge57" class="edge">
<title>6&#45;&gt;20</title>
<path fill="none" stroke="grey" stroke-width="2" d="M622.88,-447.57C671.95,-444.22 758.68,-433.04 822,-396 848.56,-380.46 871.16,-353.12 885.49,-332.83"/>
<polygon fill="grey" stroke="grey" stroke-width="2" points="888.54,-334.57 891.3,-324.35 882.77,-330.62 888.54,-334.57"/>
</g>
<!-- 6&#45;&gt;29 -->
<g id="edge72" class="edge">
<title>6&#45;&gt;29</title>
<path fill="none" stroke="grey" stroke-width="2" d="M571.82,-431.74C557.93,-413.67 535.29,-384.55 515,-360 507.27,-350.65 498.6,-340.56 490.89,-331.72"/>
<polygon fill="grey" stroke="grey" stroke-width="2" points="493.35,-329.22 484.13,-324.01 488.09,-333.83 493.35,-329.22"/>
</g>
<!-- 7&#45;&gt;0 -->
<g id="edge5" class="edge">
<title>7&#45;&gt;0</title>
<path fill="none" stroke="grey" stroke-width="2" d="M183.2,-143.94C188.07,-123.15 199.52,-88.73 224,-72 270.84,-39.99 666.55,-24.34 791.41,-20.17"/>
<polygon fill="grey" stroke="grey" stroke-width="2" points="791.74,-23.66 801.62,-19.83 791.51,-16.66 791.74,-23.66"/>
</g>
<!-- 8&#45;&gt;0 -->
<g id="edge8" class="edge">
<title>8&#45;&gt;0</title>
<path fill="none" stroke="grey" stroke-width="2" d="M280.96,-215.84C271.82,-206.3 261.83,-193.62 257,-180 251.65,-164.92 249.64,-158.21 257,-144 282.53,-94.73 307.14,-91.73 359,-72 438.15,-41.89 694.88,-25.89 791.64,-20.81"/>
<polygon fill="grey" stroke="grey" stroke-width="2" points="792.02,-24.3 801.83,-20.29 791.66,-17.31 792.02,-24.3"/>
</g>
<!-- 9&#45;&gt;0 -->
<g id="edge9" class="edge">
<title>9&#45;&gt;0</title>
<path fill="none" stroke="grey" stroke-width="2" d="M314.78,-143.98C338.86,-123.22 382.81,-88.83 427,-72 554.28,-23.52 718.8,-18.05 791.56,-18.26"/>
<polygon fill="grey" stroke="grey" stroke-width="2" points="791.59,-21.77 801.61,-18.33 791.64,-14.77 791.59,-21.77"/>
</g>
<!-- 10&#45;&gt;0 -->
<g id="edge10" class="edge">
<title>10&#45;&gt;0</title>
<path fill="none" stroke="grey" stroke-width="2" d="M408.41,-143.66C419.46,-122.91 440.92,-88.86 470,-72 524.25,-40.55 711.2,-25.96 791.67,-21.03"/>
<polygon fill="grey" stroke="grey" stroke-width="2" points="792.07,-24.51 801.85,-20.42 791.66,-17.53 792.07,-24.51"/>
</g>
<!-- 11&#45;&gt;0 -->
<g id="edge11" class="edge">
<title>11&#45;&gt;0</title>
<path fill="none" stroke="grey" stroke-width="2" d="M632.57,-287.59C620.84,-257.52 601.01,-194.24 618,-144 630.9,-105.85 640.3,-95.5 673,-72 709,-46.14 758.58,-32.16 792.11,-25.16"/>
<polygon fill="grey" stroke="grey" stroke-width="2" points="792.84,-28.59 801.96,-23.21 791.47,-21.72 792.84,-28.59"/>
</g>
<!-- 12 -->
<g id="node13" class="node">
<title>12</title>
<path fill="none" stroke="#56d892" stroke-width="2" d="M909,-252C909,-252 763,-252 763,-252 757,-252 751,-246 751,-240 751,-240 751,-228 751,-228 751,-222 757,-216 763,-216 763,-216 909,-216 909,-216 915,-216 921,-222 921,-228 921,-228 921,-240 921,-240 921,-246 915,-252 909,-252"/>
<text text-anchor="middle" x="836" y="-237" font-family="sans" font-size="10.00">glmLRT</text>
<text text-anchor="middle" x="836" y="-226" font-family="sans" font-size="10.00">contrast: DMSO.D2_vs_DMSO.D8</text>
</g>
<!-- 11&#45;&gt;12 -->
<g id="edge45" class="edge">
<title>11&#45;&gt;12</title>
<path fill="none" stroke="grey" stroke-width="2" d="M667.25,-295.27C695.93,-285.02 741.92,-268.6 778.64,-255.48"/>
<polygon fill="grey" stroke="grey" stroke-width="2" points="780.01,-258.71 788.25,-252.05 777.65,-252.12 780.01,-258.71"/>
</g>
<!-- 22 -->
<g id="node23" class="node">
<title>22</title>
<path fill="none" stroke="#56d892" stroke-width="2" d="M1410,-252C1410,-252 1258,-252 1258,-252 1252,-252 1246,-246 1246,-240 1246,-240 1246,-228 1246,-228 1246,-222 1252,-216 1258,-216 1258,-216 1410,-216 1410,-216 1416,-216 1422,-222 1422,-228 1422,-228 1422,-240 1422,-240 1422,-246 1416,-252 1410,-252"/>
<text text-anchor="middle" x="1334" y="-237" font-family="sans" font-size="10.00">glmLRT</text>
<text text-anchor="middle" x="1334" y="-226" font-family="sans" font-size="10.00">contrast: DMSO.D2_vs_DMSO.D14</text>
</g>
<!-- 11&#45;&gt;22 -->
<g id="edge61" class="edge">
<title>11&#45;&gt;22</title>
<path fill="none" stroke="grey" stroke-width="2" d="M667.12,-301.34C694.36,-297.71 737.55,-292.13 775,-288 936.15,-270.22 1123.83,-253.17 1235.57,-243.41"/>
<polygon fill="grey" stroke="grey" stroke-width="2" points="1236.15,-246.87 1245.81,-242.52 1235.54,-239.9 1236.15,-246.87"/>
</g>
<!-- 12&#45;&gt;0 -->
<g id="edge12" class="edge">
<title>12&#45;&gt;0</title>
<path fill="none" stroke="grey" stroke-width="2" d="M829.35,-215.63C825.8,-205.42 821.8,-192.17 820,-180 813.09,-133.22 819.22,-78.08 824.19,-45.98"/>
<polygon fill="grey" stroke="grey" stroke-width="2" points="827.65,-46.46 825.81,-36.02 820.75,-45.33 827.65,-46.46"/>
</g>
<!-- 12&#45;&gt;14 -->
<g id="edge47" class="edge">
<title>12&#45;&gt;14</title>
<path fill="none" stroke="grey" stroke-width="2" d="M797.84,-215.88C776.61,-206.35 749.99,-194.41 727.43,-184.28"/>
<polygon fill="grey" stroke="grey" stroke-width="2" points="728.59,-180.97 718.04,-180.07 725.73,-187.36 728.59,-180.97"/>
</g>
<!-- 15 -->
<g id="node16" class="node">
<title>15</title>
<path fill="none" stroke="#d89c56" stroke-width="2" d="M887.5,-180C887.5,-180 840.5,-180 840.5,-180 834.5,-180 828.5,-174 828.5,-168 828.5,-168 828.5,-156 828.5,-156 828.5,-150 834.5,-144 840.5,-144 840.5,-144 887.5,-144 887.5,-144 893.5,-144 899.5,-150 899.5,-156 899.5,-156 899.5,-168 899.5,-168 899.5,-174 893.5,-180 887.5,-180"/>
<text text-anchor="middle" x="864" y="-159.5" font-family="sans" font-size="10.00">volcano_plot</text>
</g>
<!-- 12&#45;&gt;15 -->
<g id="edge50" class="edge">
<title>12&#45;&gt;15</title>
<path fill="none" stroke="grey" stroke-width="2" d="M842.92,-215.7C846.07,-207.81 849.88,-198.3 853.38,-189.55"/>
<polygon fill="grey" stroke="grey" stroke-width="2" points="856.69,-190.69 857.16,-180.1 850.19,-188.09 856.69,-190.69"/>
</g>
<!-- 16 -->
<g id="node17" class="node">
<title>16</title>
<path fill="none" stroke="#d88556" stroke-width="2" d="M998.5,-180C998.5,-180 929.5,-180 929.5,-180 923.5,-180 917.5,-174 917.5,-168 917.5,-168 917.5,-156 917.5,-156 917.5,-150 923.5,-144 929.5,-144 929.5,-144 998.5,-144 998.5,-144 1004.5,-144 1010.5,-150 1010.5,-156 1010.5,-156 1010.5,-168 1010.5,-168 1010.5,-174 1004.5,-180 998.5,-180"/>
<text text-anchor="middle" x="964" y="-159.5" font-family="sans" font-size="10.00">hairpin_histogram</text>
</g>
<!-- 12&#45;&gt;16 -->
<g id="edge51" class="edge">
<title>12&#45;&gt;16</title>
<path fill="none" stroke="grey" stroke-width="2" d="M867.31,-215.88C884.2,-206.64 905.25,-195.13 923.38,-185.21"/>
<polygon fill="grey" stroke="grey" stroke-width="2" points="925.47,-188.06 932.57,-180.19 922.11,-181.92 925.47,-188.06"/>
</g>
<!-- 17 -->
<g id="node18" class="node">
<title>17</title>
<path fill="none" stroke="#61d856" stroke-width="2" d="M952.5,-108C952.5,-108 907.5,-108 907.5,-108 901.5,-108 895.5,-102 895.5,-96 895.5,-96 895.5,-84 895.5,-84 895.5,-78 901.5,-72 907.5,-72 907.5,-72 952.5,-72 952.5,-72 958.5,-72 964.5,-78 964.5,-84 964.5,-84 964.5,-96 964.5,-96 964.5,-102 958.5,-108 952.5,-108"/>
<text text-anchor="middle" x="930" y="-87.5" font-family="sans" font-size="10.00">top_hairpins</text>
</g>
<!-- 12&#45;&gt;17 -->
<g id="edge52" class="edge">
<title>12&#45;&gt;17</title>
<path fill="none" stroke="grey" stroke-width="2" d="M921.17,-218.66C963.17,-209.68 1007.48,-196.63 1020,-180 1029.62,-167.22 1027.94,-157.89 1020,-144 1009.98,-126.47 991.64,-114.16 974.12,-105.85"/>
<polygon fill="grey" stroke="grey" stroke-width="2" points="975.09,-102.45 964.53,-101.63 972.28,-108.86 975.09,-102.45"/>
</g>
<!-- 18 -->
<g id="node19" class="node">
<title>18</title>
<path fill="none" stroke="#5682d8" stroke-width="2" d="M1132.5,-180C1132.5,-180 1079.5,-180 1079.5,-180 1073.5,-180 1067.5,-174 1067.5,-168 1067.5,-168 1067.5,-156 1067.5,-156 1067.5,-150 1073.5,-144 1079.5,-144 1079.5,-144 1132.5,-144 1132.5,-144 1138.5,-144 1144.5,-150 1144.5,-156 1144.5,-156 1144.5,-168 1144.5,-168 1144.5,-174 1138.5,-180 1132.5,-180"/>
<text text-anchor="middle" x="1106" y="-159.5" font-family="sans" font-size="10.00">FDR_hairpins</text>
</g>
<!-- 12&#45;&gt;18 -->
<g id="edge53" class="edge">
<title>12&#45;&gt;18</title>
<path fill="none" stroke="grey" stroke-width="2" d="M911.41,-215.97C953.3,-206.16 1006.25,-193.19 1053,-180 1054.45,-179.59 1055.93,-179.17 1057.41,-178.73"/>
<polygon fill="grey" stroke="grey" stroke-width="2" points="1058.74,-181.99 1067.31,-175.76 1056.72,-175.29 1058.74,-181.99"/>
</g>
<!-- 19 -->
<g id="node20" class="node">
<title>19</title>
<path fill="none" stroke="#56d863" stroke-width="2" d="M1077,-108C1077,-108 1033,-108 1033,-108 1027,-108 1021,-102 1021,-96 1021,-96 1021,-84 1021,-84 1021,-78 1027,-72 1033,-72 1033,-72 1077,-72 1077,-72 1083,-72 1089,-78 1089,-84 1089,-84 1089,-96 1089,-96 1089,-102 1083,-108 1077,-108"/>
<text text-anchor="middle" x="1055" y="-87.5" font-family="sans" font-size="10.00">plotSMEAR</text>
</g>
<!-- 12&#45;&gt;19 -->
<g id="edge54" class="edge">
<title>12&#45;&gt;19</title>
<path fill="none" stroke="grey" stroke-width="2" d="M921.29,-230.8C1005.14,-226.63 1124.7,-214.59 1154,-180 1164.34,-167.79 1162.22,-157.73 1154,-144 1147.46,-133.07 1121.8,-119.49 1098.25,-108.82"/>
<polygon fill="grey" stroke="grey" stroke-width="2" points="1099.6,-105.58 1089.03,-104.73 1096.76,-111.98 1099.6,-105.58"/>
</g>
<!-- 21 -->
<g id="node22" class="node">
<title>21</title>
<path fill="none" stroke="#8fd856" stroke-width="2" d="M750.5,-108C750.5,-108 711.5,-108 711.5,-108 705.5,-108 699.5,-102 699.5,-96 699.5,-96 699.5,-84 699.5,-84 699.5,-78 705.5,-72 711.5,-72 711.5,-72 750.5,-72 750.5,-72 756.5,-72 762.5,-78 762.5,-84 762.5,-84 762.5,-96 762.5,-96 762.5,-102 756.5,-108 750.5,-108"/>
<text text-anchor="middle" x="731" y="-87.5" font-family="sans" font-size="10.00">gene_level</text>
</g>
<!-- 12&#45;&gt;21 -->
<g id="edge59" class="edge">
<title>12&#45;&gt;21</title>
<path fill="none" stroke="grey" stroke-width="2" d="M817.92,-215.66C807.97,-205.68 795.71,-192.64 786,-180 770.55,-159.88 755.59,-135.23 745.18,-116.97"/>
<polygon fill="grey" stroke="grey" stroke-width="2" points="748.13,-115.07 740.17,-108.07 742.02,-118.5 748.13,-115.07"/>
</g>
<!-- 13&#45;&gt;12 -->
<g id="edge44" class="edge">
<title>13&#45;&gt;12</title>
<path fill="none" stroke="grey" stroke-width="2" d="M765.66,-359.91C763.91,-341.21 763.49,-310.84 775,-288 780.72,-276.65 790.04,-266.69 799.69,-258.56"/>
<polygon fill="grey" stroke="grey" stroke-width="2" points="802.11,-261.11 807.8,-252.18 797.77,-255.61 802.11,-261.11"/>
</g>
<!-- 13&#45;&gt;20 -->
<g id="edge56" class="edge">
<title>13&#45;&gt;20</title>
<path fill="none" stroke="grey" stroke-width="2" d="M800.78,-359.88C818.63,-350.55 840.9,-338.92 860,-328.94"/>
<polygon fill="grey" stroke="grey" stroke-width="2" points="861.85,-331.92 869.09,-324.19 858.61,-325.72 861.85,-331.92"/>
</g>
<!-- 13&#45;&gt;22 -->
<g id="edge60" class="edge">
<title>13&#45;&gt;22</title>
<path fill="none" stroke="grey" stroke-width="2" d="M770.53,-359.68C774.55,-338.96 784.5,-304.94 808,-288 841.86,-263.6 1093.13,-247.12 1235.78,-239.62"/>
<polygon fill="grey" stroke="grey" stroke-width="2" points="1236.05,-243.11 1245.86,-239.1 1235.69,-236.12 1236.05,-243.11"/>
</g>
<!-- 13&#45;&gt;29 -->
<g id="edge71" class="edge">
<title>13&#45;&gt;29</title>
<path fill="none" stroke="grey" stroke-width="2" d="M723.24,-366.52C677.98,-355.92 606.98,-339.3 551.5,-326.31"/>
<polygon fill="grey" stroke="grey" stroke-width="2" points="552.22,-322.89 541.68,-324.02 550.62,-329.7 552.22,-322.89"/>
</g>
<!-- 14&#45;&gt;0 -->
<g id="edge13" class="edge">
<title>14&#45;&gt;0</title>
<path fill="none" stroke="grey" stroke-width="2" d="M677.3,-143.99C675.19,-124.5 674.89,-92.61 691,-72 715.14,-41.12 759.6,-28.22 791.54,-22.84"/>
<polygon fill="grey" stroke="grey" stroke-width="2" points="792.47,-26.24 801.84,-21.29 791.43,-19.32 792.47,-26.24"/>
</g>
<!-- 15&#45;&gt;0 -->
<g id="edge14" class="edge">
<title>15&#45;&gt;0</title>
<path fill="none" stroke="grey" stroke-width="2" d="M859.78,-143.87C853.79,-119.56 842.76,-74.82 835.66,-46.01"/>
<polygon fill="grey" stroke="grey" stroke-width="2" points="839.03,-45.06 833.24,-36.19 832.23,-46.74 839.03,-45.06"/>
</g>
<!-- 16&#45;&gt;0 -->
<g id="edge15" class="edge">
<title>16&#45;&gt;0</title>
<path fill="none" stroke="grey" stroke-width="2" d="M933.41,-143.82C918.36,-134.46 900.6,-121.94 887,-108 868.72,-89.25 852.87,-63.91 842.38,-45.07"/>
<polygon fill="grey" stroke="grey" stroke-width="2" points="845.38,-43.26 837.54,-36.14 839.23,-46.6 845.38,-43.26"/>
</g>
<!-- 17&#45;&gt;0 -->
<g id="edge16" class="edge">
<title>17&#45;&gt;0</title>
<path fill="none" stroke="grey" stroke-width="2" d="M905.29,-71.88C892.33,-62.89 876.27,-51.76 862.23,-42.03"/>
<polygon fill="grey" stroke="grey" stroke-width="2" points="864.02,-39.01 853.8,-36.19 860.03,-44.76 864.02,-39.01"/>
</g>
<!-- 18&#45;&gt;0 -->
<g id="edge17" class="edge">
<title>18&#45;&gt;0</title>
<path fill="none" stroke="grey" stroke-width="2" d="M1070.81,-143.8C1052.6,-134.25 1030.39,-121.57 1012,-108 993.28,-94.18 993.78,-84.25 974,-72 940.01,-50.96 896.41,-36.44 865.94,-27.99"/>
<polygon fill="grey" stroke="grey" stroke-width="2" points="866.7,-24.58 856.14,-25.36 864.89,-31.34 866.7,-24.58"/>
</g>
<!-- 18&#45;&gt;19 -->
<g id="edge55" class="edge">
<title>18&#45;&gt;19</title>
<path fill="none" stroke="grey" stroke-width="2" d="M1093.39,-143.7C1087.4,-135.47 1080.12,-125.48 1073.52,-116.42"/>
<polygon fill="grey" stroke="grey" stroke-width="2" points="1076.18,-114.13 1067.46,-108.1 1070.52,-118.25 1076.18,-114.13"/>
</g>
<!-- 19&#45;&gt;0 -->
<g id="edge18" class="edge">
<title>19&#45;&gt;0</title>
<path fill="none" stroke="grey" stroke-width="2" d="M1020.98,-76.71C1016.3,-75.09 1011.54,-73.48 1007,-72 958.52,-56.21 902.01,-39.7 865.9,-29.39"/>
<polygon fill="grey" stroke="grey" stroke-width="2" points="866.85,-26.02 856.27,-26.65 864.93,-32.76 866.85,-26.02"/>
</g>
<!-- 20&#45;&gt;0 -->
<g id="edge19" class="edge">
<title>20&#45;&gt;0</title>
<path fill="none" stroke="grey" stroke-width="2" d="M987.2,-305.77C1225.53,-305.33 1868.92,-284.93 1669,-72 1641.17,-42.35 1026.44,-24.19 866.67,-19.96"/>
<polygon fill="grey" stroke="grey" stroke-width="2" points="866.48,-16.45 856.39,-19.69 866.29,-23.45 866.48,-16.45"/>
</g>
<!-- 21&#45;&gt;0 -->
<g id="edge20" class="edge">
<title>21&#45;&gt;0</title>
<path fill="none" stroke="grey" stroke-width="2" d="M754.97,-71.88C767.55,-62.89 783.13,-51.76 796.75,-42.03"/>
<polygon fill="grey" stroke="grey" stroke-width="2" points="798.83,-44.85 804.93,-36.19 794.76,-39.15 798.83,-44.85"/>
</g>
<!-- 22&#45;&gt;0 -->
<g id="edge21" class="edge">
<title>22&#45;&gt;0</title>
<path fill="none" stroke="grey" stroke-width="2" d="M1422.01,-224.23C1479.79,-216.44 1547.91,-202.69 1566,-180 1596.12,-142.22 1525.6,-74.2 1522,-72 1465.89,-37.65 1002.42,-23.36 866.39,-19.88"/>
<polygon fill="grey" stroke="grey" stroke-width="2" points="866.16,-16.38 856.08,-19.62 865.98,-23.37 866.16,-16.38"/>
</g>
<!-- 22&#45;&gt;23 -->
<g id="edge62" class="edge">
<title>22&#45;&gt;23</title>
<path fill="none" stroke="grey" stroke-width="2" d="M1375.34,-215.88C1398.55,-206.26 1427.69,-194.19 1452.27,-184.01"/>
<polygon fill="grey" stroke="grey" stroke-width="2" points="1453.89,-187.13 1461.79,-180.07 1451.21,-180.66 1453.89,-187.13"/>
</g>
<!-- 24 -->
<g id="node25" class="node">
<title>24</title>
<path fill="none" stroke="#d89c56" stroke-width="2" d="M1647.5,-108C1647.5,-108 1600.5,-108 1600.5,-108 1594.5,-108 1588.5,-102 1588.5,-96 1588.5,-96 1588.5,-84 1588.5,-84 1588.5,-78 1594.5,-72 1600.5,-72 1600.5,-72 1647.5,-72 1647.5,-72 1653.5,-72 1659.5,-78 1659.5,-84 1659.5,-84 1659.5,-96 1659.5,-96 1659.5,-102 1653.5,-108 1647.5,-108"/>
<text text-anchor="middle" x="1624" y="-87.5" font-family="sans" font-size="10.00">volcano_plot</text>
</g>
<!-- 22&#45;&gt;24 -->
<g id="edge65" class="edge">
<title>22&#45;&gt;24</title>
<path fill="none" stroke="grey" stroke-width="2" d="M1422.1,-225.26C1488.94,-217.62 1573.53,-203.59 1599,-180 1615.97,-164.28 1621.75,-138.06 1623.57,-118.14"/>
<polygon fill="grey" stroke="grey" stroke-width="2" points="1627.07,-118.31 1624.21,-108.11 1620.08,-117.86 1627.07,-118.31"/>
</g>
<!-- 25 -->
<g id="node26" class="node">
<title>25</title>
<path fill="none" stroke="#d88556" stroke-width="2" d="M1188.5,-108C1188.5,-108 1119.5,-108 1119.5,-108 1113.5,-108 1107.5,-102 1107.5,-96 1107.5,-96 1107.5,-84 1107.5,-84 1107.5,-78 1113.5,-72 1119.5,-72 1119.5,-72 1188.5,-72 1188.5,-72 1194.5,-72 1200.5,-78 1200.5,-84 1200.5,-84 1200.5,-96 1200.5,-96 1200.5,-102 1194.5,-108 1188.5,-108"/>
<text text-anchor="middle" x="1154" y="-87.5" font-family="sans" font-size="10.00">hairpin_histogram</text>
</g>
<!-- 22&#45;&gt;25 -->
<g id="edge66" class="edge">
<title>22&#45;&gt;25</title>
<path fill="none" stroke="grey" stroke-width="2" d="M1305.14,-215.95C1289.06,-206.06 1268.93,-193.02 1252,-180 1225.62,-159.72 1197.74,-133.91 1178.48,-115.31"/>
<polygon fill="grey" stroke="grey" stroke-width="2" points="1180.9,-112.79 1171.3,-108.32 1176.02,-117.8 1180.9,-112.79"/>
</g>
<!-- 26 -->
<g id="node27" class="node">
<title>26</title>
<path fill="none" stroke="#61d856" stroke-width="2" d="M1275.5,-108C1275.5,-108 1230.5,-108 1230.5,-108 1224.5,-108 1218.5,-102 1218.5,-96 1218.5,-96 1218.5,-84 1218.5,-84 1218.5,-78 1224.5,-72 1230.5,-72 1230.5,-72 1275.5,-72 1275.5,-72 1281.5,-72 1287.5,-78 1287.5,-84 1287.5,-84 1287.5,-96 1287.5,-96 1287.5,-102 1281.5,-108 1275.5,-108"/>
<text text-anchor="middle" x="1253" y="-87.5" font-family="sans" font-size="10.00">top_hairpins</text>
</g>
<!-- 22&#45;&gt;26 -->
<g id="edge67" class="edge">
<title>22&#45;&gt;26</title>
<path fill="none" stroke="grey" stroke-width="2" d="M1304.63,-215.84C1291.72,-206.8 1277.57,-194.55 1269,-180 1258.01,-161.34 1254.22,-136.95 1253.06,-118.43"/>
<polygon fill="grey" stroke="grey" stroke-width="2" points="1256.55,-118.13 1252.64,-108.28 1249.55,-118.42 1256.55,-118.13"/>
</g>
<!-- 27 -->
<g id="node28" class="node">
<title>27</title>
<path fill="none" stroke="#5682d8" stroke-width="2" d="M1342.5,-180C1342.5,-180 1289.5,-180 1289.5,-180 1283.5,-180 1277.5,-174 1277.5,-168 1277.5,-168 1277.5,-156 1277.5,-156 1277.5,-150 1283.5,-144 1289.5,-144 1289.5,-144 1342.5,-144 1342.5,-144 1348.5,-144 1354.5,-150 1354.5,-156 1354.5,-156 1354.5,-168 1354.5,-168 1354.5,-174 1348.5,-180 1342.5,-180"/>
<text text-anchor="middle" x="1316" y="-159.5" font-family="sans" font-size="10.00">FDR_hairpins</text>
</g>
<!-- 22&#45;&gt;27 -->
<g id="edge68" class="edge">
<title>22&#45;&gt;27</title>
<path fill="none" stroke="grey" stroke-width="2" d="M1329.55,-215.7C1327.55,-207.9 1325.13,-198.51 1322.9,-189.83"/>
<polygon fill="grey" stroke="grey" stroke-width="2" points="1326.28,-188.92 1320.4,-180.1 1319.5,-190.66 1326.28,-188.92"/>
</g>
<!-- 28 -->
<g id="node29" class="node">
<title>28</title>
<path fill="none" stroke="#56d863" stroke-width="2" d="M1400,-108C1400,-108 1356,-108 1356,-108 1350,-108 1344,-102 1344,-96 1344,-96 1344,-84 1344,-84 1344,-78 1350,-72 1356,-72 1356,-72 1400,-72 1400,-72 1406,-72 1412,-78 1412,-84 1412,-84 1412,-96 1412,-96 1412,-102 1406,-108 1400,-108"/>
<text text-anchor="middle" x="1378" y="-87.5" font-family="sans" font-size="10.00">plotSMEAR</text>
</g>
<!-- 22&#45;&gt;28 -->
<g id="edge69" class="edge">
<title>22&#45;&gt;28</title>
<path fill="none" stroke="grey" stroke-width="2" d="M1345.96,-215.61C1352.28,-205.61 1359.61,-192.58 1364,-180 1370.99,-159.97 1374.5,-136.18 1376.26,-118.24"/>
<polygon fill="grey" stroke="grey" stroke-width="2" points="1379.75,-118.43 1377.12,-108.17 1372.78,-117.84 1379.75,-118.43"/>
</g>
<!-- 30 -->
<g id="node31" class="node">
<title>30</title>
<path fill="none" stroke="#8fd856" stroke-width="2" d="M1481.5,-108C1481.5,-108 1442.5,-108 1442.5,-108 1436.5,-108 1430.5,-102 1430.5,-96 1430.5,-96 1430.5,-84 1430.5,-84 1430.5,-78 1436.5,-72 1442.5,-72 1442.5,-72 1481.5,-72 1481.5,-72 1487.5,-72 1493.5,-78 1493.5,-84 1493.5,-84 1493.5,-96 1493.5,-96 1493.5,-102 1487.5,-108 1481.5,-108"/>
<text text-anchor="middle" x="1462" y="-87.5" font-family="sans" font-size="10.00">gene_level</text>
</g>
<!-- 22&#45;&gt;30 -->
<g id="edge74" class="edge">
<title>22&#45;&gt;30</title>
<path fill="none" stroke="grey" stroke-width="2" d="M1349.58,-215.83C1358.98,-205.46 1371.19,-191.98 1382,-180 1401.55,-158.33 1423.74,-133.64 1439.78,-115.77"/>
<polygon fill="grey" stroke="grey" stroke-width="2" points="1442.61,-117.86 1446.68,-108.08 1437.4,-113.18 1442.61,-117.86"/>
</g>
<!-- 23&#45;&gt;0 -->
<g id="edge22" class="edge">
<title>23&#45;&gt;0</title>
<path fill="none" stroke="grey" stroke-width="2" d="M1509.14,-143.79C1515.05,-123.82 1520.73,-91.17 1503,-72 1459.61,-25.06 1001.98,-19.63 866.55,-19.05"/>
<polygon fill="grey" stroke="grey" stroke-width="2" points="866.28,-15.55 856.27,-19.02 866.26,-22.55 866.28,-15.55"/>
</g>
<!-- 24&#45;&gt;0 -->
<g id="edge23" class="edge">
<title>24&#45;&gt;0</title>
<path fill="none" stroke="grey" stroke-width="2" d="M1588.25,-75.62C1583.51,-74.21 1578.67,-72.94 1574,-72 1306.78,-18 975.98,-16.95 866.27,-18.3"/>
<polygon fill="grey" stroke="grey" stroke-width="2" points="866.01,-14.8 856.06,-18.44 866.11,-21.8 866.01,-14.8"/>
</g>
<!-- 25&#45;&gt;0 -->
<g id="edge24" class="edge">
<title>25&#45;&gt;0</title>
<path fill="none" stroke="grey" stroke-width="2" d="M1107.35,-74.46C1104.19,-73.59 1101.06,-72.76 1098,-72 1016.13,-51.56 918.64,-34.01 866.43,-25.15"/>
<polygon fill="grey" stroke="grey" stroke-width="2" points="866.75,-21.66 856.31,-23.45 865.59,-28.56 866.75,-21.66"/>
</g>
<!-- 26&#45;&gt;0 -->
<g id="edge25" class="edge">
<title>26&#45;&gt;0</title>
<path fill="none" stroke="grey" stroke-width="2" d="M1218.03,-74.39C1215.34,-73.5 1212.64,-72.69 1210,-72 1086.78,-39.57 935.6,-26.04 866.58,-21.25"/>
<polygon fill="grey" stroke="grey" stroke-width="2" points="866.44,-17.73 856.23,-20.56 865.97,-24.72 866.44,-17.73"/>
</g>
<!-- 27&#45;&gt;0 -->
<g id="edge26" class="edge">
<title>27&#45;&gt;0</title>
<path fill="none" stroke="grey" stroke-width="2" d="M1317.74,-143.73C1318.75,-123.37 1316.9,-90.04 1297,-72 1265.27,-43.22 971.9,-26.04 866.49,-20.76"/>
<polygon fill="grey" stroke="grey" stroke-width="2" points="866.48,-17.25 856.32,-20.26 866.13,-24.25 866.48,-17.25"/>
</g>
<!-- 27&#45;&gt;28 -->
<g id="edge70" class="edge">
<title>27&#45;&gt;28</title>
<path fill="none" stroke="grey" stroke-width="2" d="M1331.33,-143.7C1338.76,-135.3 1347.82,-125.07 1355.98,-115.86"/>
<polygon fill="grey" stroke="grey" stroke-width="2" points="1358.84,-117.91 1362.85,-108.1 1353.6,-113.27 1358.84,-117.91"/>
</g>
<!-- 28&#45;&gt;0 -->
<g id="edge27" class="edge">
<title>28&#45;&gt;0</title>
<path fill="none" stroke="grey" stroke-width="2" d="M1343.94,-75.84C1339.3,-74.37 1334.57,-73.04 1330,-72 1159.65,-33.39 950.19,-22.77 866.31,-19.96"/>
<polygon fill="grey" stroke="grey" stroke-width="2" points="866.35,-16.46 856.25,-19.64 866.13,-23.46 866.35,-16.46"/>
</g>
<!-- 29&#45;&gt;0 -->
<g id="edge28" class="edge">
<title>29&#45;&gt;0</title>
<path fill="none" stroke="grey" stroke-width="2" d="M472.3,-287.99C482.08,-239.37 512.32,-101.44 546,-72 582.08,-40.46 722.87,-26.43 791.28,-21.38"/>
<polygon fill="grey" stroke="grey" stroke-width="2" points="791.88,-24.85 801.61,-20.64 791.39,-17.86 791.88,-24.85"/>
</g>
<!-- 30&#45;&gt;0 -->
<g id="edge29" class="edge">
<title>30&#45;&gt;0</title>
<path fill="none" stroke="grey" stroke-width="2" d="M1430.08,-74.69C1427.05,-73.66 1423.99,-72.74 1421,-72 1215.97,-21.57 960.5,-17.9 866.2,-18.45"/>
<polygon fill="grey" stroke="grey" stroke-width="2" points="866,-14.95 856.03,-18.53 866.05,-21.95 866,-14.95"/>
</g>
</g>
</svg>
